<svg xmlns="http://www.w3.org/2000/svg" viewBox="0 0 200 200">
  {/* Body Outline */}
  <path
    d="M40 120 C40 70 70 60 100 60 C130 60 160 70 160 120 C160 170 130 180 100 180 C70 180 40 170 40 120 Z"
    fill="#3d1a11"
  />
  {/* Main Body */}
  <path
    d="M46 120 C46 76 73 66 100 66 C127 66 154 76 154 120 C154 164 127 174 100 174 C73 174 46 164 46 120 Z"
    fill="#f7c694"
  />
  {/* White Belly */}
  <path
    d="M46 130 C46 170 73 174 100 174 C127 174 154 170 154 130 C154 115 100 115 46 130 Z"
    fill="white"
  />
  
  {/* Ears */}
  <g>
    <circle cx="65" cy="70" r="15" fill="#3d1a11" />
    <circle cx="65" cy="70" r="10" fill="#f7c694" />
    <circle cx="135" cy="70" r="15" fill="#3d1a11" />
    <circle cx="135" cy="70" r="10" fill="#f7c694" />
  </g>

  {/* Eyes */}
  <g>
    <circle cx="75" cy="115" r="14" fill="#3d1a11" />
    <circle cx="80" cy="110" r="5" fill="white" />
    <circle cx="72" cy="118" r="2" fill="white" />
    
    <circle cx="125" cy="115" r="14" fill="#3d1a11" />
    <circle cx="130" cy="110" r="5" fill="white" />
    <circle cx="122" cy="118" r="2" fill="white" />
  </g>

  {/* Cheeks */}
  <ellipse cx="55" cy="135" rx="12" ry="8" fill="#ffb5a7" fill-opacity="0.6" />
  <ellipse cx="145" cy="135" rx="12" ry="8" fill="#ffb5a7" fill-opacity="0.6" />

  {/* Mouth */}
  <path
    d="M95 130 Q100 135 105 130"
    fill="none"
    stroke="#3d1a11"
    stroke-width="3"
    stroke-linecap="round"
  />

  {/* Sunflower Seed */}
  <g transform="translate(100, 150) rotate(10)">
    <path
      d="M0 -15 C10 0 10 15 0 20 C-10 15 -10 0 0 -15 Z"
      fill="#3d1a11"
    />
    <path d="M-4 0 L-4 10 M0 -5 L0 15 M4 0 L4 10" stroke="#f7c694" stroke-width="1.5" stroke-linecap="round" />
  </g>

  {/* Hands */}
  <path d="M80 155 Q75 160 80 165" fill="none" stroke="#3d1a11" stroke-width="4" stroke-linecap="round" />
  <path d="M120 155 Q125 160 120 165" fill="none" stroke="#3d1a11" stroke-width="4" stroke-linecap="round" />
</svg>
