<svg xmlns="http://www.w3.org/2000/svg" viewBox="0 0 200 200">
  {/* Body Outline - Thick and Rounded */}
  <path
    d="M45 120 C45 75 70 65 100 65 C130 65 155 75 155 120 C155 165 130 175 100 175 C70 175 45 165 45 120 Z"
    fill="#3d1a11"
  />
  {/* Main Body - Light Beige Top */}
  <path
    d="M50 120 C50 80 75 70 100 70 C125 70 150 80 150 120 C150 160 125 170 100 170 C75 170 50 160 50 120 Z"
    fill="#f7c694"
  />
  {/* White Bottom Area */}
  <path
    d="M50 135 C50 170 75 170 100 170 C125 170 150 170 150 135 C150 125 100 125 50 135 Z"
    fill="white"
  />
  
  {/* Ears - Small and Rounded */}
  <g>
    <circle cx="70" cy="75" r="12" fill="#3d1a11" />
    <circle cx="70" cy="75" r="8" fill="#f7c694" />
    <circle cx="130" cy="75" r="12" fill="#3d1a11" />
    <circle cx="130" cy="75" r="8" fill="#f7c694" />
  </g>

  {/* Eyes - Tiny and Black */}
  <g>
    <circle cx="85" cy="115" r="6" fill="#3d1a11" />
    <circle cx="87" cy="113" r="1.5" fill="white" />
    
    <circle cx="115" cy="115" r="6" fill="#3d1a11" />
    <circle cx="117" cy="113" r="1.5" fill="white" />
  </g>

  {/* Mouth - Tiny 'w' shape */}
  <path
    d="M97 128 Q100 131 103 128"
    fill="none"
    stroke="#3d1a11"
    stroke-width="2"
    stroke-linecap="round"
  />

  {/* Paws - Tiny and Simple */}
  <path d="M85 145 Q82 148 85 151" fill="none" stroke="#3d1a11" stroke-width="3" stroke-linecap="round" />
  <path d="M115 145 Q118 148 115 151" fill="none" stroke="#3d1a11" stroke-width="3" stroke-linecap="round" />
  
  {/* Feet */}
  <path d="M75 170 Q70 175 78 175" fill="none" stroke="#3d1a11" stroke-width="3" stroke-linecap="round" />
  <path d="M125 170 Q130 175 122 175" fill="none" stroke="#3d1a11" stroke-width="3" stroke-linecap="round" />
</svg>
